<svg t="1660009940692" class="icon" viewBox="0 0 1024 1024" version="1.1" xmlns="http://www.w3.org/2000/svg" p-id="46220" width="128" height="128"><path d="M870.912 171.52h-76.8v46.08-108.032c0-17.408-13.312-30.72-30.72-30.72H141.312c-17.408 0-30.72 13.312-30.72 30.72v681.472c0 17.408 13.312 30.72 30.72 30.72h57.856v82.944c0 23.04 19.456 40.448 40.448 40.448h633.344c23.04 0 40.448-19.456 40.448-40.448V211.968c0-21.504-19.456-40.448-42.496-40.448zM411.136 225.28c0-13.312 9.728-23.04 23.04-23.04h256c13.312 0 23.04 9.728 23.04 23.04v15.36c0 13.312-9.728 23.04-23.04 23.04h-256c-13.312 0-23.04-9.728-23.04-23.04v-15.36zM220.16 352.256h461.824c17.408 0 30.72 13.312 30.72 30.72s-13.312 30.72-30.72 30.72H220.16c-17.408 0-30.72-13.312-30.72-30.72s15.36-30.72 30.72-30.72z m0 150.016h461.824c17.408 0 30.72 13.312 30.72 30.72s-13.312 30.72-30.72 30.72H220.16c-17.408 0-30.72-13.312-30.72-30.72 0-15.36 15.36-30.72 30.72-30.72z m-30.72 181.248c0-17.408 13.312-30.72 30.72-30.72h461.824c17.408 0 30.72 13.312 30.72 30.72s-13.312 30.72-30.72 30.72H220.16c-15.36 2.048-30.72-13.824-30.72-30.72z m660.48 200.192H261.12v-61.44h504.32c17.408 0 30.72-13.312 30.72-30.72v-558.08h55.808v650.752l-2.048-0.512z" p-id="46221"></path></svg>