<svg t="1660009961768" class="icon" viewBox="0 0 1024 1024" version="1.1" xmlns="http://www.w3.org/2000/svg" p-id="46785" width="128" height="128"><path d="M651.776 312.32l166.912-1.536c24.064 0 35.84-30.208 17.92-46.592l-153.088-140.8c-17.408-15.872-45.056-3.584-45.056 19.968l1.536 157.184c0 6.656 5.12 11.776 11.776 11.776z" p-id="46786"></path><path d="M828.928 344.064h-161.28c-33.792 0-60.928-27.136-60.928-60.928v-148.48c0-15.36-12.8-28.16-28.16-28.16H205.824c-21.504 0-38.4 17.408-38.4 38.4v734.208c0 21.504 17.408 38.4 38.4 38.4h612.864c21.504 0 38.4-17.408 38.4-38.4v-506.88c0-15.872-12.8-28.16-28.16-28.16z m-152.576 369.152H344.576c-15.36 0-28.16-12.8-28.16-28.16s12.8-28.16 28.16-28.16h331.776c15.36 0 28.16 12.8 28.16 28.16s-12.8 28.16-28.16 28.16z m0-152.576H344.576c-15.36 0-28.16-12.8-28.16-28.16s12.8-28.16 28.16-28.16h331.776c15.36 0 28.16 12.8 28.16 28.16 0 15.872-12.8 28.16-28.16 28.16z" p-id="46787"></path></svg>