<svg t="1660009929767" class="icon" viewBox="0 0 1024 1024" version="1.1" xmlns="http://www.w3.org/2000/svg" p-id="46070" width="128" height="128"><path d="M605.866667 452.266667c0-36.266667 23.466667-68.266667 55.466666-81.066667-8.533333-29.866667-19.2-59.733333-36.266666-85.333333-32 14.933333-70.4 8.533333-98.133334-17.066667-25.6-25.6-32-64-17.066666-98.133333-27.733333-14.933333-55.466667-27.733333-85.333334-36.266667-12.8 32-44.8 55.466667-81.066666 55.466667-36.266667 0-68.266667-23.466667-81.066667-55.466667-29.866667 8.533333-59.733333 19.2-85.333333 36.266667 14.933333 32 8.533333 70.4-17.066667 98.133333s-64 32-98.133333 17.066667c-14.933333 27.733333-27.733333 55.466667-36.266667 85.333333 32 12.8 55.466667 44.8 55.466667 81.066667 0 36.266667-23.466667 68.266667-55.466667 81.066666 8.533333 29.866667 19.2 59.733333 36.266667 85.333334 32-14.933333 70.4-8.533333 98.133333 17.066666 25.6 25.6 32 64 17.066667 98.133334 27.733333 14.933333 55.466667 27.733333 85.333333 36.266666 12.8-32 44.8-55.466667 81.066667-55.466666s68.266667 23.466667 81.066666 55.466666c29.866667-8.533333 59.733333-19.2 85.333334-36.266666-14.933333-32-8.533333-70.4 17.066666-98.133334 25.6-25.6 64-32 98.133334-17.066666 14.933333-27.733333 27.733333-55.466667 36.266666-85.333334-32-12.8-55.466667-42.666667-55.466666-81.066666z m-262.4 87.466666c-66.133333 0-115.2-72.533333-70.4-140.8 4.266667-6.4 10.666667-12.8 17.066666-17.066666 89.6-55.466667 183.466667 42.666667 119.466667 132.266666-12.8 17.066667-32 27.733333-53.333333 27.733334l-12.8-2.133334zM938.666667 256H725.333333c-23.466667 0-42.666667-19.2-42.666666-42.666667s19.2-42.666667 42.666666-42.666666h213.333334c23.466667 0 42.666667 19.2 42.666666 42.666666s-19.2 42.666667-42.666666 42.666667zM938.666667 576H725.333333c-23.466667 0-42.666667-19.2-42.666666-42.666667s19.2-42.666667 42.666666-42.666666h213.333334c23.466667 0 42.666667 19.2 42.666666 42.666666s-19.2 42.666667-42.666666 42.666667zM938.666667 896H384c-23.466667 0-42.666667-19.2-42.666667-42.666667s19.2-42.666667 42.666667-42.666666h554.666667c23.466667 0 42.666667 19.2 42.666666 42.666666s-19.2 42.666667-42.666666 42.666667z" p-id="46071"></path></svg>