<svg t="1660009976471" class="icon" viewBox="0 0 1024 1024" version="1.1" xmlns="http://www.w3.org/2000/svg" p-id="46936" width="128" height="128"><path d="M910.933333 512c0-57.6 36.266667-104.533333 85.333334-123.733333-12.8-46.933333-29.866667-91.733333-53.333334-132.266667-49.066667 21.333333-108.8 12.8-147.2-27.733333C755.2 189.866667 746.666667 130.133333 768 81.066667c-40.533333-23.466667-85.333333-42.666667-132.266667-53.333334-19.2 49.066667-68.266667 85.333333-123.733333 85.333334-57.6 0-104.533333-36.266667-123.733333-85.333334-46.933333 10.666667-91.733333 29.866667-132.266667 53.333334 21.333333 49.066667 12.8 108.8-27.733333 147.2S130.133333 277.333333 81.066667 256c-23.466667 40.533333-42.666667 85.333333-55.466667 132.266667 49.066667 19.2 85.333333 68.266667 85.333333 123.733333 0 57.6-36.266667 104.533333-85.333333 123.733333 12.8 46.933333 32 91.733333 55.466667 132.266667 49.066667-21.333333 108.8-12.8 147.2 27.733333 40.533333 40.533333 49.066667 100.266667 27.733333 147.2 40.533333 23.466667 85.333333 42.666667 132.266667 53.333334 19.2-49.066667 68.266667-85.333333 123.733333-85.333334 57.6 0 104.533333 36.266667 123.733333 85.333334 46.933333-12.8 91.733333-29.866667 132.266667-53.333334-21.333333-49.066667-12.8-108.8 27.733333-147.2S896 746.666667 942.933333 768c23.466667-40.533333 42.666667-85.333333 55.466667-132.266667-51.2-19.2-87.466667-66.133333-87.466667-123.733333zM512 644.266667c-72.533333 0-132.266667-59.733333-132.266667-132.266667s59.733333-132.266667 132.266667-132.266667 132.266667 59.733333 132.266667 132.266667-59.733333 132.266667-132.266667 132.266667z" p-id="46937"></path></svg>